name ./resultDataOpenSim/trcMotMarkerGrf/sub09/grf-14-01.mot
datacolumns 19
datarows 30
range 1.01200000 1.12800000
endheader

                time	     ground_force_vx	     ground_force_vy	     ground_force_vz	     ground_force_px	     ground_force_py	     ground_force_pz	   l_ground_force_vx	   l_ground_force_vy	   l_ground_force_vz	   l_ground_force_px	   l_ground_force_py	   l_ground_force_pz	     ground_torque_x	     ground_torque_y	     ground_torque_z	   l_ground_torque_x	   l_ground_torque_y	   l_ground_torque_z	
          1.01200000	          0.00000000	          0.00000000	          0.00000000	          0.00000000	          0.00000000	          0.00000000	         33.47455103	        509.33067966	        -10.94499989	          0.09478195	         -0.07500100	         -0.00118728	          0.00000000	          0.00000000	          0.00000000	          0.00000000	         -3.19317506	          0.00000000	
          1.01600000	          0.00000000	          0.00000000	          0.00000000	          0.00000000	          0.00000000	          0.00000000	         37.49466746	        519.85607519	         -8.89676674	          0.09497474	         -0.07500100	         -0.00103825	          0.00000000	          0.00000000	          0.00000000	          0.00000000	         -3.19148916	          0.00000000	
          1.02000000	          0.00000000	          0.00000000	          0.00000000	          0.00000000	          0.00000000	          0.00000000	         41.66532324	        530.43122227	         -6.71968181	          0.09518276	         -0.07500100	         -0.00090329	          0.00000000	          0.00000000	          0.00000000	          0.00000000	         -3.18655529	          0.00000000	
          1.02400000	          0.00000000	          0.00000000	          0.00000000	          0.00000000	          0.00000000	          0.00000000	         45.97809359	        541.11749747	         -4.43469060	          0.09538633	         -0.07500176	         -0.00079097	          0.00000000	          0.00000000	          0.00000000	          0.00000000	         -3.18061512	          0.00000000	
          1.02800000	          0.00000000	          0.00000000	          0.00000000	          0.00000000	          0.00000000	          0.00000000	         50.44564353	        551.85301936	         -2.09361905	          0.09559666	         -0.07500140	         -0.00069403	          0.00000000	          0.00000000	          0.00000000	          0.00000000	         -3.17593427	          0.00000000	
          1.03200000	          0.00000000	          0.00000000	          0.00000000	          0.00000000	          0.00000000	          0.00000000	         55.08459683	        562.48038833	          0.21580155	          0.09584897	         -0.07500128	         -0.00058584	          0.00000000	          0.00000000	          0.00000000	          0.00000000	         -3.17468393	          0.00000000	
          1.03600000	          0.00000000	          0.00000000	          0.00000000	          0.00000000	          0.00000000	          0.00000000	         59.88750564	        572.85802768	          2.39505237	          0.09615145	         -0.07500144	         -0.00044814	          0.00000000	          0.00000000	          0.00000000	          0.00000000	         -3.17849562	          0.00000000	
          1.04000000	          0.00000000	          0.00000000	          0.00000000	          0.00000000	          0.00000000	          0.00000000	         64.81046476	        582.93065861	          4.36226729	          0.09648379	         -0.07500160	         -0.00028541	          0.00000000	          0.00000000	          0.00000000	          0.00000000	         -3.18790571	          0.00000000	
          1.04400000	          0.00000000	          0.00000000	          0.00000000	          0.00000000	          0.00000000	          0.00000000	         69.78282479	        592.69292334	          6.07287158	          0.09681410	         -0.07500139	         -0.00011369	          0.00000000	          0.00000000	          0.00000000	          0.00000000	         -3.20200554	          0.00000000	
          1.04800000	          0.00000000	          0.00000000	          0.00000000	          0.00000000	          0.00000000	          0.00000000	         74.72978783	        602.11693473	          7.53201447	          0.09711506	         -0.07500160	          0.00004871	          0.00000000	          0.00000000	          0.00000000	          0.00000000	         -3.21850084	          0.00000000	
          1.05200000	          0.00000000	          0.00000000	          0.00000000	          0.00000000	          0.00000000	          0.00000000	         79.59255735	        611.13204912	          8.79613764	          0.09739057	         -0.07500160	          0.00019658	          0.00000000	          0.00000000	          0.00000000	          0.00000000	         -3.23416088	          0.00000000	
          1.05600000	          0.00000000	          0.00000000	          0.00000000	          0.00000000	          0.00000000	          0.00000000	         84.33993625	        619.64989298	          9.95013728	          0.09769284	         -0.07500109	          0.00035180	          0.00000000	          0.00000000	          0.00000000	          0.00000000	         -3.24550127	          0.00000000	
          1.06000000	          0.00000000	          0.00000000	          0.00000000	          0.00000000	          0.00000000	          0.00000000	         88.97508265	        627.59008847	         11.05671428	          0.09807474	         -0.07500100	          0.00054686	          0.00000000	          0.00000000	          0.00000000	          0.00000000	         -3.24954615	          0.00000000	
          1.06400000	          0.00000000	          0.00000000	          0.00000000	          0.00000000	          0.00000000	          0.00000000	         93.52977793	        634.90207462	         12.11875576	          0.09854051	         -0.07500100	          0.00079580	          0.00000000	          0.00000000	          0.00000000	          0.00000000	         -3.24452154	          0.00000000	
          1.06800000	          0.00000000	          0.00000000	          0.00000000	          0.00000000	          0.00000000	          0.00000000	         98.03351098	        641.59833411	         13.09633062	          0.09906777	         -0.07500100	          0.00109180	          0.00000000	          0.00000000	          0.00000000	          0.00000000	         -3.23027878	          0.00000000	
          1.07200000	          0.00000000	          0.00000000	          0.00000000	          0.00000000	          0.00000000	          0.00000000	        102.47824215	        647.78302327	         13.95173859	          0.09963196	         -0.07500100	          0.00142201	          0.00000000	          0.00000000	          0.00000000	          0.00000000	         -3.20826184	          0.00000000	
          1.07600000	          0.00000000	          0.00000000	          0.00000000	          0.00000000	          0.00000000	          0.00000000	        106.81890770	        653.63205535	         14.65996632	          0.10020473	         -0.07500100	          0.00177392	          0.00000000	          0.00000000	          0.00000000	          0.00000000	         -3.18101822	          0.00000000	
          1.08000000	          0.00000000	          0.00000000	          0.00000000	          0.00000000	          0.00000000	          0.00000000	        111.00267488	        659.30526669	         15.18274289	          0.10075663	         -0.07500100	          0.00213472	          0.00000000	          0.00000000	          0.00000000	          0.00000000	         -3.15149723	          0.00000000	
          1.08400000	          0.00000000	          0.00000000	          0.00000000	          0.00000000	          0.00000000	          0.00000000	        114.99042184	        664.83512597	         15.46292544	          0.10126044	         -0.07500100	          0.00248585	          0.00000000	          0.00000000	          0.00000000	          0.00000000	         -3.12246248	          0.00000000	
          1.08800000	          0.00000000	          0.00000000	          0.00000000	          0.00000000	          0.00000000	          0.00000000	        118.75798699	        670.07780659	         15.44934587	          0.10170369	         -0.07500100	          0.00281335	          0.00000000	          0.00000000	          0.00000000	          0.00000000	         -3.09619392	          0.00000000	
          1.09200000	          0.00000000	          0.00000000	          0.00000000	          0.00000000	          0.00000000	          0.00000000	        122.28690884	        674.75983708	         15.10950852	          0.10209132	         -0.07500100	          0.00311155	          0.00000000	          0.00000000	          0.00000000	          0.00000000	         -3.07438794	          0.00000000	
          1.09600000	          0.00000000	          0.00000000	          0.00000000	          0.00000000	          0.00000000	          0.00000000	        125.56566645	        678.56203422	         14.42294901	          0.10245848	         -0.07500100	          0.00339762	          0.00000000	          0.00000000	          0.00000000	          0.00000000	         -3.05802474	          0.00000000	
          1.10000000	          0.00000000	          0.00000000	          0.00000000	          0.00000000	          0.00000000	          0.00000000	        128.60215346	        681.19549193	         13.38580855	          0.10286855	         -0.07500100	          0.00370565	          0.00000000	          0.00000000	          0.00000000	          0.00000000	         -3.04712805	          0.00000000	
          1.10400000	          0.00000000	          0.00000000	          0.00000000	          0.00000000	          0.00000000	          0.00000000	        131.41826370	        682.46989288	         12.03156884	          0.10338083	         -0.07500084	          0.00406641	          0.00000000	          0.00000000	          0.00000000	          0.00000000	         -3.04062167	          0.00000000	
          1.10800000	          0.00000000	          0.00000000	          0.00000000	          0.00000000	          0.00000000	          0.00000000	        134.02259434	        682.31068103	         10.43107972	          0.10401654	         -0.07500068	          0.00449599	          0.00000000	          0.00000000	          0.00000000	          0.00000000	         -3.03650429	          0.00000000	
          1.11200000	          0.00000000	          0.00000000	          0.00000000	          0.00000000	          0.00000000	          0.00000000	        136.39665727	        680.69621135	          8.65789462	          0.10476998	         -0.07500008	          0.00499157	          0.00000000	          0.00000000	          0.00000000	          0.00000000	         -3.03227070	          0.00000000	
          1.11600000	          0.00000000	          0.00000000	          0.00000000	          0.00000000	          0.00000000	          0.00000000	        138.51296632	        677.59631834	          6.76673601	          0.10561277	         -0.07500000	          0.00553111	          0.00000000	          0.00000000	          0.00000000	          0.00000000	         -3.02531808	          0.00000000	
          1.12000000	          0.00000000	          0.00000000	          0.00000000	          0.00000000	          0.00000000	          0.00000000	        140.36134729	        672.99428996	          4.81285731	          0.10650654	         -0.07500000	          0.00609166	          0.00000000	          0.00000000	          0.00000000	          0.00000000	         -3.01322575	          0.00000000	
          1.12400000	          0.00000000	          0.00000000	          0.00000000	          0.00000000	          0.00000000	          0.00000000	        141.95802684	        666.94147619	          2.86812481	          0.10741075	         -0.07500000	          0.00666029	          0.00000000	          0.00000000	          0.00000000	          0.00000000	         -2.99401457	          0.00000000	
          1.12800000	          0.00000000	          0.00000000	          0.00000000	          0.00000000	          0.00000000	          0.00000000	        143.33840947	        659.53954911	          0.99338355	          0.10830988	         -0.07500000	          0.00722965	          0.00000000	          0.00000000	          0.00000000	          0.00000000	         -2.96647120	          0.00000000	
